<svg xmlns="http://www.w3.org/2000/svg" viewBox="0 0 256 256" width="256" height="256" role="img" aria-label="DNSACME">
  <title>DNSACME</title>
  <!--
    Small-size source for DNSACME (<=32px: 16/24/32 PNGs and favicons).
    Same emerald "verified certificate" seal silhouette as logo.svg, but the
    ACME wordmark and coin rim are dropped and the checkmark is thickened so the
    mark stays crisp when rasterized tiny. Large sizes (>=48px) use logo.svg.
  -->
  <defs>
    <linearGradient id="badge" x1="0" y1="0" x2="0" y2="1">
      <stop offset="0" stop-color="#1FD79E"/>
      <stop offset="0.5" stop-color="#0BA673"/>
      <stop offset="1" stop-color="#046A47"/>
    </linearGradient>
    <linearGradient id="gloss" x1="0" y1="0" x2="0" y2="1">
      <stop offset="0" stop-color="#ffffff" stop-opacity="0.30"/>
      <stop offset="0.5" stop-color="#ffffff" stop-opacity="0"/>
    </linearGradient>
    <path id="seal" d="M 236.00 128.00 C 236.00 131.46 234.93 135.10 233.44 138.38 C 231.95 141.67 229.31 144.79 227.06 147.70 C 224.81 150.62 221.95 153.17 219.91 155.88 C 217.88 158.59 216.05 161.07 214.84 163.97 C 213.64 166.87 213.19 169.92 212.71 173.28 C 212.23 176.63 212.45 180.46 211.98 184.11 C 211.51 187.77 211.17 191.84 209.90 195.21 C 208.63 198.59 206.82 201.92 204.37 204.37 C 201.92 206.82 198.59 208.63 195.21 209.90 C 191.84 211.17 187.77 211.51 184.11 211.98 C 180.46 212.45 176.63 212.23 173.28 212.71 C 169.92 213.19 166.87 213.64 163.97 214.84 C 161.07 216.05 158.59 217.88 155.88 219.91 C 153.17 221.95 150.62 224.81 147.70 227.06 C 144.79 229.31 141.67 231.95 138.38 233.44 C 135.10 234.93 131.46 236.00 128.00 236.00 C 124.54 236.00 120.90 234.93 117.62 233.44 C 114.33 231.95 111.21 229.31 108.30 227.06 C 105.38 224.81 102.83 221.95 100.12 219.91 C 97.41 217.88 94.93 216.05 92.03 214.84 C 89.13 213.64 86.08 213.19 82.72 212.71 C 79.37 212.23 75.54 212.45 71.89 211.98 C 68.23 211.51 64.16 211.17 60.79 209.90 C 57.41 208.63 54.08 206.82 51.63 204.37 C 49.18 201.92 47.37 198.59 46.10 195.21 C 44.83 191.84 44.49 187.77 44.02 184.11 C 43.55 180.46 43.77 176.63 43.29 173.28 C 42.81 169.92 42.36 166.87 41.16 163.97 C 39.95 161.07 38.12 158.59 36.09 155.88 C 34.05 153.17 31.19 150.62 28.94 147.70 C 26.69 144.79 24.05 141.67 22.56 138.38 C 21.07 135.10 20.00 131.46 20.00 128.00 C 20.00 124.54 21.07 120.90 22.56 117.62 C 24.05 114.33 26.69 111.21 28.94 108.30 C 31.19 105.38 34.05 102.83 36.09 100.12 C 38.12 97.41 39.95 94.93 41.16 92.03 C 42.36 89.13 42.81 86.08 43.29 82.72 C 43.77 79.37 43.55 75.54 44.02 71.89 C 44.49 68.23 44.83 64.16 46.10 60.79 C 47.37 57.41 49.18 54.08 51.63 51.63 C 54.08 49.18 57.41 47.37 60.79 46.10 C 64.16 44.83 68.23 44.49 71.89 44.02 C 75.54 43.55 79.37 43.77 82.72 43.29 C 86.08 42.81 89.13 42.36 92.03 41.16 C 94.93 39.95 97.41 38.12 100.12 36.09 C 102.83 34.05 105.38 31.19 108.30 28.94 C 111.21 26.69 114.33 24.05 117.62 22.56 C 120.90 21.07 124.54 20.00 128.00 20.00 C 131.46 20.00 135.10 21.07 138.38 22.56 C 141.67 24.05 144.79 26.69 147.70 28.94 C 150.62 31.19 153.17 34.05 155.88 36.09 C 158.59 38.12 161.07 39.95 163.97 41.16 C 166.87 42.36 169.92 42.81 173.28 43.29 C 176.63 43.77 180.46 43.55 184.11 44.02 C 187.77 44.49 191.84 44.83 195.21 46.10 C 198.59 47.37 201.92 49.18 204.37 51.63 C 206.82 54.08 208.63 57.41 209.90 60.79 C 211.17 64.16 211.51 68.23 211.98 71.89 C 212.45 75.54 212.23 79.37 212.71 82.72 C 213.19 86.08 213.64 89.13 214.84 92.03 C 216.05 94.93 217.88 97.41 219.91 100.12 C 221.95 102.83 224.81 105.38 227.06 108.30 C 229.31 111.21 231.95 114.33 233.44 117.62 C 234.93 120.90 236.00 124.54 236.00 128.00 Z"/>
    <clipPath id="sealClip"><use href="#seal"/></clipPath>
  </defs>

  <use href="#seal" fill="url(#badge)"/>
  <g clip-path="url(#sealClip)"><use href="#seal" fill="url(#gloss)"/></g>
  <path d="M92 128 l24 26 l50 -58" fill="none" stroke="#ffffff" stroke-width="20" stroke-linecap="round" stroke-linejoin="round"/>
</svg>
