<svg xmlns="http://www.w3.org/2000/svg" viewBox="0 0 206 64" width="206" height="64" role="img" aria-label="dnsacme">
  <title>dnsacme</title>
  <defs>
    <linearGradient id="badge" x1="0" y1="0" x2="0" y2="1">
      <stop offset="0" stop-color="#1FD79E"/><stop offset="0.5" stop-color="#0BA673"/><stop offset="1" stop-color="#046A47"/>
    </linearGradient>
    <linearGradient id="gloss" x1="0" y1="0" x2="0" y2="1">
      <stop offset="0" stop-color="#ffffff" stop-opacity="0.30"/><stop offset="0.5" stop-color="#ffffff" stop-opacity="0"/>
    </linearGradient>
    <path id="seal" d="M 233.00 128.00 C 233.00 131.31 231.17 134.93 228.71 137.92 C 226.24 140.91 221.81 143.60 218.23 145.95 C 214.66 148.30 210.12 149.99 207.24 152.04 C 204.37 154.09 202.02 155.73 200.99 158.23 C 199.95 160.73 200.45 163.56 201.03 167.04 C 201.61 170.52 203.63 174.92 204.50 179.11 C 205.36 183.31 206.60 188.34 206.22 192.20 C 205.85 196.05 204.58 199.91 202.25 202.25 C 199.91 204.58 196.05 205.85 192.20 206.22 C 188.34 206.60 183.31 205.36 179.11 204.50 C 174.92 203.63 170.52 201.61 167.04 201.03 C 163.56 200.45 160.73 199.95 158.23 200.99 C 155.73 202.02 154.09 204.37 152.04 207.24 C 149.99 210.12 148.30 214.66 145.95 218.23 C 143.60 221.81 140.91 226.24 137.92 228.71 C 134.93 231.17 131.31 233.00 128.00 233.00 C 124.69 233.00 121.07 231.17 118.08 228.71 C 115.09 226.24 112.40 221.81 110.05 218.23 C 107.70 214.66 106.01 210.12 103.96 207.24 C 101.91 204.37 100.27 202.02 97.77 200.99 C 95.27 199.95 92.44 200.45 88.96 201.03 C 85.48 201.61 81.08 203.63 76.89 204.50 C 72.69 205.36 67.66 206.60 63.80 206.22 C 59.95 205.85 56.09 204.58 53.75 202.25 C 51.42 199.91 50.15 196.05 49.78 192.20 C 49.40 188.34 50.64 183.31 51.50 179.11 C 52.37 174.92 54.39 170.52 54.97 167.04 C 55.55 163.56 56.05 160.73 55.01 158.23 C 53.98 155.73 51.63 154.09 48.76 152.04 C 45.88 149.99 41.34 148.30 37.77 145.95 C 34.19 143.60 29.76 140.91 27.29 137.92 C 24.83 134.93 23.00 131.31 23.00 128.00 C 23.00 124.69 24.83 121.07 27.29 118.08 C 29.76 115.09 34.19 112.40 37.77 110.05 C 41.34 107.70 45.88 106.01 48.76 103.96 C 51.63 101.91 53.98 100.27 55.01 97.77 C 56.05 95.27 55.55 92.44 54.97 88.96 C 54.39 85.48 52.37 81.08 51.50 76.89 C 50.64 72.69 49.40 67.66 49.78 63.80 C 50.15 59.95 51.42 56.09 53.75 53.75 C 56.09 51.42 59.95 50.15 63.80 49.78 C 67.66 49.40 72.69 50.64 76.89 51.50 C 81.08 52.37 85.48 54.39 88.96 54.97 C 92.44 55.55 95.27 56.05 97.77 55.01 C 100.27 53.98 101.91 51.63 103.96 48.76 C 106.01 45.88 107.70 41.34 110.05 37.77 C 112.40 34.19 115.09 29.76 118.08 27.29 C 121.07 24.83 124.69 23.00 128.00 23.00 C 131.31 23.00 134.93 24.83 137.92 27.29 C 140.91 29.76 143.60 34.19 145.95 37.77 C 148.30 41.34 149.99 45.88 152.04 48.76 C 154.09 51.63 155.73 53.98 158.23 55.01 C 160.73 56.05 163.56 55.55 167.04 54.97 C 170.52 54.39 174.92 52.37 179.11 51.50 C 183.31 50.64 188.34 49.40 192.20 49.78 C 196.05 50.15 199.91 51.42 202.25 53.75 C 204.58 56.09 205.85 59.95 206.22 63.80 C 206.60 67.66 205.36 72.69 204.50 76.89 C 203.63 81.08 201.61 85.48 201.03 88.96 C 200.45 92.44 199.95 95.27 200.99 97.77 C 202.02 100.27 204.37 101.91 207.24 103.96 C 210.12 106.01 214.66 107.70 218.23 110.05 C 221.81 112.40 226.24 115.09 228.71 118.08 C 231.17 121.07 233.00 124.69 233.00 128.00 Z"/>
    <clipPath id="sealClip"><use href="#seal"/></clipPath>
  </defs>
  <g transform="translate(32 31.5) scale(0.22) translate(-128 -128)">
    <use href="#seal" fill="url(#badge)"/>
    <g clip-path="url(#sealClip)">
      <use href="#seal" fill="url(#gloss)"/>
      <g transform="translate(128 128) scale(0.85) translate(-128 -128)"><use href="#seal" fill="none" stroke="#ffffff" stroke-opacity="0.28" stroke-width="4.5"/></g>
    </g>
    <path d="M92 128 l24 26 l50 -58" fill="none" stroke="#ffffff" stroke-width="20" stroke-linecap="round" stroke-linejoin="round"/>
  </g>
  <path fill="#334155" d="M75.662 40L75.662 23.536L81.738 23.536Q83.793 23.536 84.871 23.851L84.871 23.851Q86.320 24.277 87.353 25.367Q88.386 26.456 88.925 28.034Q89.464 29.612 89.464 31.925L89.464 31.925Q89.464 33.958 88.959 35.429L88.959 35.429Q88.341 37.226 87.196 38.338L87.196 38.338Q86.331 39.180 84.860 39.652L84.860 39.652Q83.759 40 81.917 40L81.917 40L75.662 40ZM80.480 26.321L78.986 26.321L78.986 37.226L81.468 37.226Q82.861 37.226 83.479 37.069L83.479 37.069Q84.287 36.867 84.821 36.384Q85.354 35.901 85.691 34.795Q86.028 33.688 86.028 31.779L86.028 31.779Q86.028 29.870 85.691 28.848Q85.354 27.826 84.748 27.253Q84.141 26.681 83.209 26.479L83.209 26.479Q82.513 26.321 80.480 26.321L80.480 26.321Z M96.405 40L93.317 40L93.317 23.536L96.551 23.536L103.290 34.531L103.290 23.536L106.378 23.536L106.378 40L103.042 40L96.405 29.264L96.405 40Z M110.051 34.643L110.051 34.643L113.285 34.329Q113.577 35.957 114.470 36.721Q115.363 37.484 116.879 37.484L116.879 37.484Q118.485 37.484 119.299 36.805Q120.113 36.125 120.113 35.216L120.113 35.216Q120.113 34.632 119.771 34.222Q119.428 33.812 118.575 33.509L118.575 33.509Q117.991 33.307 115.913 32.790L115.913 32.790Q113.240 32.127 112.162 31.162L112.162 31.162Q110.646 29.803 110.646 27.849L110.646 27.849Q110.646 26.591 111.359 25.496Q112.072 24.401 113.414 23.828Q114.756 23.255 116.654 23.255L116.654 23.255Q119.754 23.255 121.321 24.614Q122.887 25.973 122.966 28.242L122.966 28.242L119.642 28.388Q119.428 27.119 118.726 26.563Q118.024 26.007 116.621 26.007L116.621 26.007Q115.172 26.007 114.352 26.602L114.352 26.602Q113.824 26.984 113.824 27.624L113.824 27.624Q113.824 28.208 114.318 28.624L114.318 28.624Q114.947 29.151 117.373 29.724Q119.799 30.297 120.961 30.909Q122.124 31.521 122.781 32.582Q123.438 33.644 123.438 35.205L123.438 35.205Q123.438 36.620 122.651 37.855Q121.865 39.090 120.428 39.691Q118.990 40.292 116.845 40.292L116.845 40.292Q113.723 40.292 112.050 38.849Q110.376 37.406 110.051 34.643Z"/>
  <path fill="#059669" d="M135.488 23.536L142.081 40L138.464 40L137.027 36.260L130.446 36.260L129.087 40L125.561 40L131.973 23.536L135.488 23.536ZM131.468 33.486L135.960 33.486L133.691 27.377L131.468 33.486Z M155.378 33.947L155.378 33.947L158.601 34.969Q157.860 37.664 156.136 38.972Q154.412 40.281 151.762 40.281L151.762 40.281Q148.482 40.281 146.371 38.040Q144.260 35.800 144.260 31.914L144.260 31.914Q144.260 27.804 146.382 25.530Q148.505 23.255 151.964 23.255L151.964 23.255Q154.985 23.255 156.872 25.041L156.872 25.041Q157.995 26.097 158.556 28.073L158.556 28.073L155.266 28.859Q154.974 27.579 154.047 26.838Q153.121 26.097 151.795 26.097L151.795 26.097Q149.965 26.097 148.825 27.411Q147.685 28.725 147.685 31.667L147.685 31.667Q147.685 34.789 148.808 36.114Q149.931 37.439 151.728 37.439L151.728 37.439Q153.053 37.439 154.008 36.597Q154.962 35.755 155.378 33.947Z M165.497 40L162.409 40L162.409 23.536L167.384 23.536L170.371 34.767L173.325 23.536L178.311 23.536L178.311 40L175.223 40L175.223 27.040L171.955 40L168.754 40L165.497 27.040L165.497 40Z M195.135 40L182.613 40L182.613 23.536L194.820 23.536L194.820 26.321L185.937 26.321L185.937 29.971L194.203 29.971L194.203 32.745L185.937 32.745L185.937 37.226L195.135 37.226L195.135 40Z"/>
</svg>
