<svg xmlns="http://www.w3.org/2000/svg" viewBox="0 0 256 256" width="256" height="256" role="img" aria-label="DNSACME">
  <title>DNSACME</title>
  <!--
    DNSACME app icon. Flat-polished "verified certificate" seal in the Synology
    DSM system-app style: emerald scalloped badge, top gloss, inset coin rim,
    a checkmark (valid cert) and the ACME wordmark. Master source; small-size
    PNGs (<=32px) render a simplified variant (gentle scallop, bolder check, no
    wordmark) for crisp edges. Green = valid TLS.
  -->
  <defs>
    <linearGradient id="badge" x1="0" y1="0" x2="0" y2="1">
      <stop offset="0" stop-color="#1FD79E"/>
      <stop offset="0.5" stop-color="#0BA673"/>
      <stop offset="1" stop-color="#046A47"/>
    </linearGradient>
    <linearGradient id="gloss" x1="0" y1="0" x2="0" y2="1">
      <stop offset="0" stop-color="#ffffff" stop-opacity="0.32"/>
      <stop offset="0.5" stop-color="#ffffff" stop-opacity="0"/>
    </linearGradient>
    <path id="seal" d="M 233.00 128.00 C 233.00 131.31 231.17 134.93 228.71 137.92 C 226.24 140.91 221.81 143.60 218.23 145.95 C 214.66 148.30 210.12 149.99 207.24 152.04 C 204.37 154.09 202.02 155.73 200.99 158.23 C 199.95 160.73 200.45 163.56 201.03 167.04 C 201.61 170.52 203.63 174.92 204.50 179.11 C 205.36 183.31 206.60 188.34 206.22 192.20 C 205.85 196.05 204.58 199.91 202.25 202.25 C 199.91 204.58 196.05 205.85 192.20 206.22 C 188.34 206.60 183.31 205.36 179.11 204.50 C 174.92 203.63 170.52 201.61 167.04 201.03 C 163.56 200.45 160.73 199.95 158.23 200.99 C 155.73 202.02 154.09 204.37 152.04 207.24 C 149.99 210.12 148.30 214.66 145.95 218.23 C 143.60 221.81 140.91 226.24 137.92 228.71 C 134.93 231.17 131.31 233.00 128.00 233.00 C 124.69 233.00 121.07 231.17 118.08 228.71 C 115.09 226.24 112.40 221.81 110.05 218.23 C 107.70 214.66 106.01 210.12 103.96 207.24 C 101.91 204.37 100.27 202.02 97.77 200.99 C 95.27 199.95 92.44 200.45 88.96 201.03 C 85.48 201.61 81.08 203.63 76.89 204.50 C 72.69 205.36 67.66 206.60 63.80 206.22 C 59.95 205.85 56.09 204.58 53.75 202.25 C 51.42 199.91 50.15 196.05 49.78 192.20 C 49.40 188.34 50.64 183.31 51.50 179.11 C 52.37 174.92 54.39 170.52 54.97 167.04 C 55.55 163.56 56.05 160.73 55.01 158.23 C 53.98 155.73 51.63 154.09 48.76 152.04 C 45.88 149.99 41.34 148.30 37.77 145.95 C 34.19 143.60 29.76 140.91 27.29 137.92 C 24.83 134.93 23.00 131.31 23.00 128.00 C 23.00 124.69 24.83 121.07 27.29 118.08 C 29.76 115.09 34.19 112.40 37.77 110.05 C 41.34 107.70 45.88 106.01 48.76 103.96 C 51.63 101.91 53.98 100.27 55.01 97.77 C 56.05 95.27 55.55 92.44 54.97 88.96 C 54.39 85.48 52.37 81.08 51.50 76.89 C 50.64 72.69 49.40 67.66 49.78 63.80 C 50.15 59.95 51.42 56.09 53.75 53.75 C 56.09 51.42 59.95 50.15 63.80 49.78 C 67.66 49.40 72.69 50.64 76.89 51.50 C 81.08 52.37 85.48 54.39 88.96 54.97 C 92.44 55.55 95.27 56.05 97.77 55.01 C 100.27 53.98 101.91 51.63 103.96 48.76 C 106.01 45.88 107.70 41.34 110.05 37.77 C 112.40 34.19 115.09 29.76 118.08 27.29 C 121.07 24.83 124.69 23.00 128.00 23.00 C 131.31 23.00 134.93 24.83 137.92 27.29 C 140.91 29.76 143.60 34.19 145.95 37.77 C 148.30 41.34 149.99 45.88 152.04 48.76 C 154.09 51.63 155.73 53.98 158.23 55.01 C 160.73 56.05 163.56 55.55 167.04 54.97 C 170.52 54.39 174.92 52.37 179.11 51.50 C 183.31 50.64 188.34 49.40 192.20 49.78 C 196.05 50.15 199.91 51.42 202.25 53.75 C 204.58 56.09 205.85 59.95 206.22 63.80 C 206.60 67.66 205.36 72.69 204.50 76.89 C 203.63 81.08 201.61 85.48 201.03 88.96 C 200.45 92.44 199.95 95.27 200.99 97.77 C 202.02 100.27 204.37 101.91 207.24 103.96 C 210.12 106.01 214.66 107.70 218.23 110.05 C 221.81 112.40 226.24 115.09 228.71 118.08 C 231.17 121.07 233.00 124.69 233.00 128.00 Z"/>
    <clipPath id="sealClip"><use href="#seal"/></clipPath>
    <filter id="badgeShadow" x="-25%" y="-25%" width="150%" height="150%">
      <feDropShadow dx="0" dy="6" stdDeviation="9" flood-color="#003018" flood-opacity="0.30"/>
    </filter>
    <filter id="markShadow" x="-30%" y="-30%" width="160%" height="160%">
      <feDropShadow dx="0" dy="3" stdDeviation="4" flood-color="#00311e" flood-opacity="0.24"/>
    </filter>
  </defs>

  <!-- seal body + depth -->
  <g filter="url(#badgeShadow)"><use href="#seal" fill="url(#badge)"/></g>
  <g clip-path="url(#sealClip)">
    <use href="#seal" fill="url(#gloss)"/>
    <g transform="translate(128 128) scale(0.85) translate(-128 -128)">
      <use href="#seal" fill="none" stroke="#ffffff" stroke-opacity="0.28" stroke-width="4.5"/>
    </g>
  </g>

  <!-- valid-certificate check + ACME wordmark -->
  <path d="M99 116 l19 21 l39 -46" fill="none" stroke="#ffffff" stroke-width="15" stroke-linecap="round" stroke-linejoin="round" filter="url(#markShadow)"/>
  <text x="128" y="180" text-anchor="middle" font-family="Helvetica, Arial, sans-serif" font-weight="700" font-size="26" letter-spacing="2" fill="#ffffff" filter="url(#markShadow)">ACME</text>
</svg>
